<svg width="32" height="32" viewBox="0 0 32 32" fill="none" xmlns="http://www.w3.org/2000/svg">
<path d="M4 11C4 7.68629 6.68629 5 10 5H22C25.3137 5 28 7.68629 28 11V29H10C6.68629 29 4 26.3137 4 23V11Z" fill="#0E0E0E"/>
<path d="M9 19.5795V12.2052C9 12.0917 9.10122 12 9.22641 12H11.6423C11.7675 12 11.8687 12.0917 11.8687 12.2052V19.6158C11.8687 20.183 12.3748 20.6417 13.0008 20.6417H14.4258C14.551 20.6417 14.6522 20.5499 14.6522 20.4365V13.1128C14.6522 12.9993 14.7534 12.9076 14.8786 12.9076H17.132C17.2572 12.9076 17.3584 12.9993 17.3584 13.1128V20.4365C17.3584 20.5499 17.4597 20.6417 17.5849 20.6417H19.9049C20.0301 20.6417 20.1313 20.5499 20.1313 20.4365V12.2052C20.1313 12.0917 20.2325 12 20.3577 12H22.7736C22.8988 12 23 12.0917 23 12.2052V23H12.7744C10.6887 23 9 21.4672 9 19.5795Z" fill="#FDFDFD"/>
</svg>
