<svg width="32" height="32" viewBox="0 0 32 32" fill="none" xmlns="http://www.w3.org/2000/svg">
<path d="M7.99121 13.0094C7.99121 8.58591 11.5771 5 16.0006 5C20.424 5 24.0099 8.58591 24.0099 13.0094V22.0199H7.99121V13.0094Z" fill="#0E0E0E"/>
<path d="M6.85938 20.9971C6.85938 20.2399 7.47327 19.626 8.23054 19.626H23.7704C24.5277 19.626 25.1416 20.2399 25.1416 20.9971C25.1416 21.7544 24.5277 22.3683 23.7704 22.3683H8.23054C7.47327 22.3683 6.85938 21.7544 6.85938 20.9971Z" fill="#0E0E0E"/>
<path d="M13.998 23.7113C13.998 23.4743 14.1901 23.2822 14.4271 23.2822H17.5736C17.8106 23.2822 18.0027 23.4743 18.0027 23.7113V24.2834C18.0027 25.3893 17.1062 26.2857 16.0004 26.2857C14.8945 26.2857 13.998 25.3893 13.998 24.2834V23.7113Z" fill="#0E0E0E"/>
</svg>
