<svg width="32" height="32" viewBox="0 0 32 32" fill="none" xmlns="http://www.w3.org/2000/svg">
<path fill-rule="evenodd" clip-rule="evenodd" d="M15.7487 21.5277C15.3066 21.1457 14.8124 20.7384 14.2281 20.7384H6.6698C5.06263 20.7384 3.75977 19.4355 3.75977 17.8283V13.2738C3.75977 11.6666 5.06263 10.3638 6.6698 10.3638H14.2282C14.8124 10.3638 15.3067 9.95648 15.7487 9.57447L20.3568 5.59176C21.6136 4.5055 23.5654 5.39834 23.5654 7.05955V24.0426C23.5654 25.7039 21.6136 26.5967 20.3568 25.5104L15.7487 21.5277Z" fill="#0E0E0E"/>
<path d="M24.7207 13.8139C24.7207 13.4121 25.0464 13.0864 25.4482 13.0864C26.6536 13.0864 27.6307 14.0636 27.6307 15.2689V15.754C27.6307 16.9594 26.6536 17.9365 25.4482 17.9365C25.0464 17.9365 24.7207 17.6108 24.7207 17.209V13.8139Z" fill="#0E0E0E"/>
<path d="M8.23145 19.8765H12.1114V25.6966C12.1114 26.2323 11.6772 26.6666 11.1414 26.6666H9.20146C8.66573 26.6666 8.23145 26.2323 8.23145 25.6966V19.8765Z" fill="#0E0E0E"/>
</svg>
