<svg width="32" height="32" viewBox="0 0 32 32" fill="none" xmlns="http://www.w3.org/2000/svg">
<path d="M8.74121 13.0094C8.74121 9.00012 11.9913 5.75 16.0006 5.75C20.0098 5.75 23.2599 9.00012 23.2599 13.0094V21.2699H8.74121V13.0094Z" stroke="#AEAEAE" stroke-width="1.5"/>
<path d="M6.85938 20.9971C6.85938 20.2399 7.47327 19.626 8.23054 19.626H23.7704C24.5277 19.626 25.1416 20.2399 25.1416 20.9971C25.1416 21.7544 24.5277 22.3683 23.7704 22.3683H8.23054C7.47327 22.3683 6.85938 21.7544 6.85938 20.9971Z" fill="#AEAEAE"/>
<path d="M13.998 23.7113C13.998 23.4743 14.1901 23.2822 14.4271 23.2822H17.5736C17.8106 23.2822 18.0027 23.4743 18.0027 23.7113V24.2834C18.0027 25.3893 17.1062 26.2857 16.0004 26.2857C14.8945 26.2857 13.998 25.3893 13.998 24.2834V23.7113Z" fill="#AEAEAE"/>
</svg>
