<svg width="32" height="32" viewBox="0 0 32 32" fill="none" xmlns="http://www.w3.org/2000/svg">
<mask id="path-1-inside-1_242_15289" fill="white">
<path fill-rule="evenodd" clip-rule="evenodd" d="M15.7487 21.5277C15.3066 21.1457 14.8124 20.7384 14.2281 20.7384H6.6698C5.06263 20.7384 3.75977 19.4355 3.75977 17.8283V13.2738C3.75977 11.6666 5.06263 10.3638 6.6698 10.3638H14.2282C14.8124 10.3638 15.3067 9.95648 15.7487 9.57447L20.3568 5.59176C21.6136 4.5055 23.5654 5.39834 23.5654 7.05955V24.0426C23.5654 25.7039 21.6136 26.5967 20.3568 25.5104L15.7487 21.5277Z"/>
</mask>
<path d="M20.3568 5.59176L19.4053 4.49093V4.49093L20.3568 5.59176ZM20.3568 25.5104L19.4053 26.6113L20.3568 25.5104ZM14.2281 19.2833H6.6698V22.1934H14.2281V19.2833ZM5.21478 17.8283V13.2738H2.30475V17.8283H5.21478ZM6.6698 11.8188H14.2282V8.90874H6.6698V11.8188ZM16.7001 10.6753L21.3082 6.6926L19.4053 4.49093L14.7972 8.47363L16.7001 10.6753ZM21.3082 6.6926C21.6224 6.42103 22.1103 6.64424 22.1103 7.05955H25.0204C25.0204 4.15243 21.6048 2.58996 19.4053 4.49093L21.3082 6.6926ZM22.1103 7.05955V24.0426H25.0204V7.05955H22.1103ZM22.1103 24.0426C22.1103 24.4579 21.6224 24.6812 21.3082 24.4096L19.4053 26.6113C21.6048 28.5122 25.0204 26.9498 25.0204 24.0426H22.1103ZM21.3082 24.4096L16.7001 20.4269L14.7972 22.6286L19.4053 26.6113L21.3082 24.4096ZM14.2282 11.8188C15.4421 11.8188 16.3411 10.9855 16.7001 10.6753L14.7972 8.47363C14.5712 8.669 14.426 8.78581 14.2988 8.86136C14.183 8.93009 14.172 8.90874 14.2282 8.90874V11.8188ZM5.21478 13.2738C5.21478 12.4702 5.86622 11.8188 6.6698 11.8188V8.90874C4.25905 8.90874 2.30475 10.863 2.30475 13.2738H5.21478ZM6.6698 19.2833C5.86621 19.2833 5.21478 18.6319 5.21478 17.8283H2.30475C2.30475 20.2391 4.25905 22.1934 6.6698 22.1934V19.2833ZM14.2281 22.1934C14.1719 22.1934 14.183 22.172 14.2987 22.2408C14.4259 22.3163 14.5711 22.4332 14.7972 22.6286L16.7001 20.4269C16.3411 20.1167 15.4421 19.2833 14.2281 19.2833V22.1934Z" fill="#AEAEAE" mask="url(#path-1-inside-1_242_15289)"/>
<path d="M24.7207 13.8139C24.7207 13.4121 25.0464 13.0864 25.4482 13.0864C26.6536 13.0864 27.6307 14.0636 27.6307 15.2689V15.754C27.6307 16.9594 26.6536 17.9365 25.4482 17.9365C25.0464 17.9365 24.7207 17.6108 24.7207 17.209V13.8139Z" fill="#AEAEAE"/>
<path d="M8.23145 19.8765H12.1114V25.6966C12.1114 26.2323 11.6772 26.6666 11.1414 26.6666H9.20146C8.66573 26.6666 8.23145 26.2323 8.23145 25.6966V19.8765Z" fill="#AEAEAE"/>
</svg>
