<svg width="39" height="19" viewBox="0 0 39 19" fill="none" xmlns="http://www.w3.org/2000/svg">
<rect width="39" height="19" rx="4" fill="#FCE4E4"/>
<path d="M6.9375 14V5.51562H7.99219V9.71094H8.09766L11.8711 5.51562H13.2539L9.70312 9.34766L13.2539 14H11.9648L9.04688 10.0742L7.99219 11.2695V14H6.9375ZM13.8019 6.45312V5.51562H20.2003V6.45312H17.5402V14H16.4738V6.45312H13.8019Z" fill="#FF0A09"/>
<g clip-path="url(#clip0_242_15189)">
<path d="M28.6649 4.85851C28.4854 4.72047 28.2186 4.84681 28.2289 5.05973C28.2673 5.80844 27.3388 7.22632 26.4155 8.05926C24.6611 9.63858 25.033 11.5806 25.033 11.5806C25.292 13.581 27.2773 15.0106 29.4703 14.7743C31.6633 14.538 33.2305 12.727 32.9714 10.7266C32.9458 8.14817 30.073 5.93011 28.6649 4.85851ZM30.9118 11.976C30.8938 12.9306 30.032 13.6933 28.9855 13.6769C27.939 13.6606 27.1029 12.8744 27.1208 11.9198C27.1208 11.9198 27.0823 10.9839 28.016 10.3428C28.5084 10.0059 29.0419 9.39057 29.0753 9.03727C29.0856 8.93666 29.2189 8.8922 29.2933 8.96707C29.8807 9.55201 31.0785 10.7616 30.9118 11.976Z" fill="#FF0A09"/>
</g>
<defs>
<clipPath id="clip0_242_15189">
<rect width="8" height="10" fill="white" transform="translate(25 4.7998)"/>
</clipPath>
</defs>
</svg>
