<svg width="48" height="19" viewBox="0 0 48 19" fill="none" xmlns="http://www.w3.org/2000/svg">
<rect width="48" height="19" rx="4" fill="#E3EAE7"/>
<path d="M6.9375 14V5.51562H9.91406C11.6953 5.51562 12.5273 6.51172 12.5273 7.76562C12.5273 8.85547 11.8828 9.34766 11.1445 9.54688V9.62891C11.9297 9.67578 12.8672 10.4023 12.8672 11.75C12.8672 13.0273 12.0234 14 10.0195 14H6.9375ZM10.0078 13.0625C11.332 13.0625 11.8477 12.4766 11.8477 11.7383C11.8477 10.8711 11.1562 10.1445 10.0664 10.1445H7.99219V13.0625H10.0078ZM9.87891 9.23047C10.793 9.23047 11.5195 8.66797 11.5195 7.77734C11.5195 7.03906 11.0273 6.45312 9.91406 6.45312H7.99219V9.23047H9.87891ZM14.2472 14V5.51562H17.13C19.1222 5.51562 20.0245 6.61719 20.0245 8.12891C20.0245 9.24805 19.5206 10.1328 18.4425 10.5078L20.3527 14H19.1222L17.3527 10.6953C17.2823 10.707 17.212 10.707 17.1417 10.707H15.3019V14H14.2472ZM15.3019 9.74609H17.0948C18.4425 9.74609 18.9816 9.13672 18.9816 8.12891C18.9816 7.10938 18.4425 6.45312 17.0831 6.45312H15.3019V9.74609ZM28.5998 9.75781C28.5998 12.4414 27.0178 14.1172 24.8498 14.1172C22.6702 14.1172 21.0998 12.4414 21.0998 9.75781C21.0998 7.07422 22.6702 5.39844 24.8498 5.39844C27.0178 5.39844 28.5998 7.07422 28.5998 9.75781ZM27.5803 9.75781C27.5803 7.56641 26.385 6.38281 24.8498 6.38281C23.3147 6.38281 22.1194 7.56641 22.1194 9.75781C22.1194 11.9492 23.3147 13.1328 24.8498 13.1328C26.385 13.1328 27.5803 11.9492 27.5803 9.75781Z" fill="#01492B"/>
<g clip-path="url(#clip0_242_15180)">
<path d="M37.6649 4.85851C37.4854 4.72047 37.2186 4.84681 37.2289 5.05973C37.2673 5.80844 36.3388 7.22632 35.4155 8.05926C33.6611 9.63858 34.033 11.5806 34.033 11.5806C34.292 13.581 36.2773 15.0106 38.4703 14.7743C40.6633 14.538 42.2305 12.727 41.9714 10.7266C41.9458 8.14817 39.073 5.93011 37.6649 4.85851ZM39.9118 11.976C39.8938 12.9306 39.032 13.6933 37.9855 13.6769C36.939 13.6606 36.1029 12.8744 36.1208 11.9198C36.1208 11.9198 36.0823 10.9839 37.016 10.3428C37.5084 10.0059 38.0419 9.39057 38.0753 9.03727C38.0856 8.93666 38.2189 8.8922 38.2933 8.96707C38.8807 9.55201 40.0785 10.7616 39.9118 11.976Z" fill="#01492B"/>
</g>
<defs>
<clipPath id="clip0_242_15180">
<rect width="8" height="10" fill="white" transform="translate(34 4.7998)"/>
</clipPath>
</defs>
</svg>
