<svg width="71" height="31" viewBox="0 0 71 31" fill="none" xmlns="http://www.w3.org/2000/svg">
<rect width="71" height="31" rx="15.5" fill="#4A4A4A"/>
<path d="M12 15.5C12 12.1863 14.6863 9.5 18 9.5C21.3137 9.5 24 12.1863 24 15.5V19.5H12V15.5Z" fill="#FDFDFD"/>
<circle cx="14" cy="19.5" r="2" fill="#FDFDFD"/>
<circle cx="18" cy="19.5" r="2" fill="#FDFDFD"/>
<circle cx="22" cy="19.5" r="2" fill="#FDFDFD"/>
<ellipse cx="16.75" cy="13.75" rx="0.75" ry="1.25" fill="#4A4A4A"/>
<ellipse cx="19.25" cy="13.75" rx="0.75" ry="1.25" fill="#4A4A4A"/>
<path d="M39.5087 10.4492V21.043H38.2548V15.6875H37.0829V20.5039H35.8641V10.6484H37.0829V14.6211H38.2548V10.4492H39.5087ZM32.1845 11.668V17.2578C33.0985 17.2402 34.1005 17.1641 35.2079 16.9414L35.3368 18.0781C33.9071 18.3359 32.7001 18.4062 31.5751 18.4062H30.872V11.668H32.1845ZM49.4902 10.4492V21.0547H48.2012V10.4492H49.4902ZM46.2324 11.375V15.3477H42.5879V17.4805C44.2578 17.4688 45.6992 17.3867 47.3457 17.1055L47.4629 18.1719C45.6582 18.4883 44.0762 18.5469 42.1777 18.5469H41.252V14.3164H44.9082V12.4297H41.2402V11.375H46.2324ZM59.7648 10.4492V21.043H58.4523V10.4492H59.7648ZM56.6007 11.5742C56.6007 14.7266 55.382 17.4102 51.6671 19.168L50.9874 18.125C53.7589 16.8066 55.048 15.0137 55.2765 12.6055H51.5265V11.5742H56.6007Z" fill="#FDFDFD"/>
</svg>
