<svg width="24" height="24" viewBox="0 0 24 24" fill="none" xmlns="http://www.w3.org/2000/svg">
<mask id="path-1-inside-1_242_15487" fill="white">
<path fill-rule="evenodd" clip-rule="evenodd" d="M20.416 5.24708C18.3034 3.13444 14.8781 3.13444 12.7655 5.24708L12.0001 6.01241L11.235 5.24732C9.12239 3.13467 5.69712 3.13467 3.58448 5.24732C1.47184 7.35996 1.47184 10.7852 3.58448 12.8979L12.0001 21.3135L12.0004 21.3132L12.0004 21.3132L20.416 12.8976C22.5287 10.785 22.5287 7.35972 20.416 5.24708Z"/>
</mask>
<path d="M12.7655 5.24708L13.8261 6.30774L12.7655 5.24708ZM20.416 5.24708L21.4767 4.18642L20.416 5.24708ZM12.0001 6.01241L10.9395 7.07307C11.5253 7.65886 12.475 7.65886 13.0608 7.07307L12.0001 6.01241ZM11.235 5.24732L10.1744 6.30798L11.235 5.24732ZM3.58448 5.24732L4.64514 6.30798L3.58448 5.24732ZM3.58448 12.8979L4.64514 11.8372L3.58448 12.8979ZM12.0001 21.3135L10.9394 22.3741C11.2207 22.6555 11.6023 22.8135 12.0001 22.8135C12.3979 22.8135 12.7794 22.6555 13.0608 22.3741L12.0001 21.3135ZM12.0004 21.3132L13.061 20.2526C12.4752 19.6668 11.5255 19.6668 10.9397 20.2526L12.0004 21.3132ZM12.0004 21.3132L10.9397 22.3739C11.2211 22.6552 11.6026 22.8132 12.0004 22.8132C12.3982 22.8132 12.7798 22.6552 13.0611 22.3739L12.0004 21.3132ZM20.416 12.8976L21.4767 13.9583L20.416 12.8976ZM13.8261 6.30774C15.353 4.78088 17.8285 4.78088 19.3554 6.30774L21.4767 4.18642C18.7782 1.48799 14.4032 1.48799 11.7048 4.18642L13.8261 6.30774ZM13.0608 7.07307L13.8261 6.30774L11.7048 4.18642L10.9395 4.95175L13.0608 7.07307ZM10.1744 6.30798L10.9395 7.07307L13.0608 4.95175L12.2957 4.18666L10.1744 6.30798ZM4.64514 6.30798C6.172 4.78112 8.64752 4.78112 10.1744 6.30798L12.2957 4.18666C9.59727 1.48823 5.22225 1.48823 2.52382 4.18666L4.64514 6.30798ZM4.64514 11.8372C3.11829 10.3104 3.11829 7.83483 4.64514 6.30798L2.52382 4.18666C-0.17461 6.88509 -0.174605 11.2601 2.52382 13.9585L4.64514 11.8372ZM13.0608 20.2528L4.64514 11.8372L2.52382 13.9585L10.9394 22.3741L13.0608 20.2528ZM10.9397 20.2526L10.9394 20.2528L13.0608 22.3741L13.061 22.3739L10.9397 20.2526ZM13.0611 20.2526L13.061 20.2526L10.9397 22.3739L10.9397 22.3739L13.0611 20.2526ZM19.3554 11.837L10.9397 20.2526L13.0611 22.3739L21.4767 13.9583L19.3554 11.837ZM19.3554 6.30774C20.8822 7.83459 20.8822 10.3101 19.3554 11.837L21.4767 13.9583C24.1751 11.2599 24.1751 6.88485 21.4767 4.18642L19.3554 6.30774Z" fill="#0E0E0E" mask="url(#path-1-inside-1_242_15487)"/>
</svg>
