<svg width="40" height="19" viewBox="0 0 40 19" fill="none" xmlns="http://www.w3.org/2000/svg">
<rect width="40" height="19" rx="4" fill="#EDEDED"/>
<path d="M9.57422 14H6.9375V5.51562H9.67969C12.1523 5.51562 13.6172 7.10938 13.6172 9.74609C13.6172 12.3945 12.1523 14 9.57422 14ZM7.99219 13.0625H9.50391C11.5898 13.0625 12.5859 11.8086 12.5859 9.74609C12.5859 7.69531 11.5898 6.45312 9.60938 6.45312H7.99219V13.0625ZM15.0441 14V5.51562H16.0988V9.71094H16.2042L19.9777 5.51562H21.3605L17.8097 9.34766L21.3605 14H20.0714L17.1534 10.0742L16.0988 11.2695V14H15.0441Z" fill="#4A4A4A"/>
<g clip-path="url(#clip0_242_15186)">
<path d="M29.6649 4.85851C29.4854 4.72047 29.2186 4.84681 29.2289 5.05973C29.2673 5.80844 28.3388 7.22632 27.4155 8.05926C25.6611 9.63858 26.033 11.5806 26.033 11.5806C26.292 13.581 28.2773 15.0106 30.4703 14.7743C32.6633 14.538 34.2305 12.727 33.9714 10.7266C33.9458 8.14817 31.073 5.93011 29.6649 4.85851ZM31.9118 11.976C31.8938 12.9306 31.032 13.6933 29.9855 13.6769C28.939 13.6606 28.1029 12.8744 28.1208 11.9198C28.1208 11.9198 28.0823 10.9839 29.016 10.3428C29.5084 10.0059 30.0419 9.39057 30.0753 9.03727C30.0856 8.93666 30.2189 8.8922 30.2933 8.96707C30.8807 9.55201 32.0785 10.7616 31.9118 11.976Z" fill="#4A4A4A"/>
</g>
<defs>
<clipPath id="clip0_242_15186">
<rect width="8" height="10" fill="white" transform="translate(26 4.7998)"/>
</clipPath>
</defs>
</svg>
