<svg width="47" height="19" viewBox="0 0 47 19" fill="none" xmlns="http://www.w3.org/2000/svg">
<rect width="47" height="19" rx="4" fill="#FAE8E5"/>
<path d="M6.9375 14V5.51562H7.99219V9.71094H8.09766L11.8711 5.51562H13.2539L9.70312 9.34766L13.2539 14H11.9648L9.04688 10.0742L7.99219 11.2695V14H6.9375ZM16.9073 14H14.2706V5.51562H17.0128C19.4855 5.51562 20.9503 7.10938 20.9503 9.74609C20.9503 12.3945 19.4855 14 16.9073 14ZM15.3253 13.0625H16.837C18.923 13.0625 19.9191 11.8086 19.9191 9.74609C19.9191 7.69531 18.923 6.45312 16.9425 6.45312H15.3253V13.0625ZM22.3772 14V5.51562H27.4866V6.45312H23.4319V9.28906H27.0998V10.2148H23.4319V14H22.3772Z" fill="#E63312"/>
<g clip-path="url(#clip0_242_15198)">
<path d="M36.6649 4.85851C36.4854 4.72047 36.2186 4.84681 36.2289 5.05973C36.2673 5.80844 35.3388 7.22632 34.4155 8.05926C32.6611 9.63858 33.033 11.5806 33.033 11.5806C33.292 13.581 35.2773 15.0106 37.4703 14.7743C39.6633 14.538 41.2305 12.727 40.9714 10.7266C40.9458 8.14817 38.073 5.93011 36.6649 4.85851ZM38.9118 11.976C38.8938 12.9306 38.032 13.6933 36.9855 13.6769C35.939 13.6606 35.1029 12.8744 35.1208 11.9198C35.1208 11.9198 35.0823 10.9839 36.016 10.3428C36.5084 10.0059 37.0419 9.39057 37.0753 9.03727C37.0856 8.93666 37.2189 8.8922 37.2933 8.96707C37.8807 9.55201 39.0785 10.7616 38.9118 11.976Z" fill="#E63312"/>
</g>
<defs>
<clipPath id="clip0_242_15198">
<rect width="8" height="10" fill="white" transform="translate(33 4.7998)"/>
</clipPath>
</defs>
</svg>
