<svg width="40" height="19" viewBox="0 0 40 19" fill="none" xmlns="http://www.w3.org/2000/svg">
<rect width="40" height="19" rx="4" fill="#E3E3E3"/>
<path d="M13.6758 5.51562V14H12.668L8.07422 7.39062H7.99219V14H6.9375V5.51562H7.95703L12.5508 12.1367H12.6328V5.51562H13.6758ZM20.0597 7.64844C19.9659 6.81641 19.2042 6.33594 18.1847 6.33594C17.0597 6.33594 16.3214 6.92188 16.3214 7.73047C16.3214 8.62109 17.3175 8.94922 17.962 9.11328L18.8058 9.34766C19.7198 9.58203 21.2081 10.1094 21.2081 11.6914C21.2081 13.0742 20.0948 14.1523 18.1261 14.1523C16.298 14.1523 15.1613 13.2031 15.0675 11.7969H16.1456C16.2394 12.7461 17.1183 13.1914 18.1261 13.1914C19.298 13.1914 20.1769 12.5938 20.1769 11.668C20.1769 10.8477 19.3917 10.5312 18.5011 10.2734L17.4581 9.99219C16.1222 9.60547 15.3019 8.92578 15.3019 7.77734C15.3019 6.34766 16.5792 5.39844 18.2198 5.39844C19.8605 5.39844 21.0441 6.35938 21.0909 7.64844H20.0597Z" fill="#EC1C24"/>
<g clip-path="url(#clip0_242_15195)">
<path d="M29.6649 4.85851C29.4854 4.72047 29.2186 4.84681 29.2289 5.05973C29.2673 5.80844 28.3388 7.22632 27.4155 8.05926C25.6611 9.63858 26.033 11.5806 26.033 11.5806C26.292 13.581 28.2773 15.0106 30.4703 14.7743C32.6633 14.538 34.2305 12.727 33.9714 10.7266C33.9458 8.14817 31.073 5.93011 29.6649 4.85851ZM31.9118 11.976C31.8938 12.9306 31.032 13.6933 29.9855 13.6769C28.939 13.6606 28.1029 12.8744 28.1208 11.9198C28.1208 11.9198 28.0823 10.9839 29.016 10.3428C29.5084 10.0059 30.0419 9.39057 30.0753 9.03727C30.0856 8.93666 30.2189 8.8922 30.2933 8.96707C30.8807 9.55201 32.0785 10.7616 31.9118 11.976Z" fill="#EC1C24"/>
</g>
<defs>
<clipPath id="clip0_242_15195">
<rect width="8" height="10" fill="white" transform="translate(26 4.7998)"/>
</clipPath>
</defs>
</svg>
