<svg width="47" height="19" viewBox="0 0 47 19" fill="none" xmlns="http://www.w3.org/2000/svg">
<rect width="47" height="19" rx="4" fill="#FBF8DB"/>
<path d="M6.9375 14V5.51562H12.0469V6.45312H7.99219V9.28906H11.6602V10.2148H7.99219V14H6.9375ZM20.6691 9.75781C20.6691 12.4414 19.087 14.1172 16.9191 14.1172C14.7394 14.1172 13.1691 12.4414 13.1691 9.75781C13.1691 7.07422 14.7394 5.39844 16.9191 5.39844C19.087 5.39844 20.6691 7.07422 20.6691 9.75781ZM19.6495 9.75781C19.6495 7.56641 18.4542 6.38281 16.9191 6.38281C15.3839 6.38281 14.1886 7.56641 14.1886 9.75781C14.1886 11.9492 15.3839 13.1328 16.9191 13.1328C18.4542 13.1328 19.6495 11.9492 19.6495 9.75781ZM22.4827 5.51562L24.6389 9.01953H24.7092L26.8772 5.51562H28.1194L25.4592 9.75781L28.1194 14H26.8772L24.7092 10.5664H24.6389L22.4709 14H21.2288L23.9592 9.75781L21.2288 5.51562H22.4827Z" fill="#D31F28"/>
<g clip-path="url(#clip0_242_15192)">
<path d="M36.6649 4.85851C36.4854 4.72047 36.2186 4.84681 36.2289 5.05973C36.2673 5.80844 35.3388 7.22632 34.4155 8.05926C32.6611 9.63858 33.033 11.5806 33.033 11.5806C33.292 13.581 35.2773 15.0106 37.4703 14.7743C39.6633 14.538 41.2305 12.727 40.9714 10.7266C40.9458 8.14817 38.073 5.93011 36.6649 4.85851ZM38.9118 11.976C38.8938 12.9306 38.032 13.6933 36.9855 13.6769C35.939 13.6606 35.1029 12.8744 35.1208 11.9198C35.1208 11.9198 35.0823 10.9839 36.016 10.3428C36.5084 10.0059 37.0419 9.39057 37.0753 9.03727C37.0856 8.93666 37.2189 8.8922 37.2933 8.96707C37.8807 9.55201 39.0785 10.7616 38.9118 11.976Z" fill="#D31F28"/>
</g>
<defs>
<clipPath id="clip0_242_15192">
<rect width="8" height="10" fill="white" transform="translate(33 4.7998)"/>
</clipPath>
</defs>
</svg>
