<svg width="37" height="20" viewBox="0 0 37 20" fill="none" xmlns="http://www.w3.org/2000/svg">
<rect y="0.5" width="37" height="19" rx="4" fill="#F9E3E7"/>
<path d="M6.46875 6.95312V6.01562H12.8672V6.95312H10.207V14.5H9.14062V6.95312H6.46875ZM17.0128 6.01562V14.5H15.9464V7.11719H15.8995L13.837 8.48828V7.42188L15.9464 6.01562H17.0128Z" fill="#E2012D"/>
<g clip-path="url(#clip0_854_11932)">
<path d="M26.6649 5.35851C26.4854 5.22047 26.2186 5.34681 26.2289 5.55973C26.2673 6.30844 25.3388 7.72632 24.4155 8.55926C22.6611 10.1386 23.033 12.0806 23.033 12.0806C23.292 14.081 25.2773 15.5106 27.4703 15.2743C29.6633 15.038 31.2305 13.227 30.9714 11.2266C30.9458 8.64817 28.073 6.43011 26.6649 5.35851ZM28.9118 12.476C28.8938 13.4306 28.032 14.1933 26.9855 14.1769C25.939 14.1606 25.1029 13.3744 25.1208 12.4198C25.1208 12.4198 25.0823 11.4839 26.016 10.8428C26.5084 10.5059 27.0419 9.89057 27.0753 9.53727C27.0856 9.43666 27.2189 9.3922 27.2933 9.46707C27.8807 10.052 29.0785 11.2616 28.9118 12.476Z" fill="#E2012D"/>
</g>
<defs>
<clipPath id="clip0_854_11932">
<rect width="8" height="10" fill="white" transform="translate(23 5.2998)"/>
</clipPath>
</defs>
</svg>
