<svg width="46" height="19" viewBox="0 0 46 19" fill="none" xmlns="http://www.w3.org/2000/svg">
<rect width="46" height="19" rx="4" fill="#FBEEE6"/>
<path d="M6.9375 14V5.51562H7.99219V9.28906H12.4805V5.51562H13.5469V14H12.4805V10.2148H7.99219V14H6.9375ZM15.2902 14V5.51562H16.3448V13.0625H20.2823V14H15.2902ZM21.5686 14V5.51562H26.7131V6.45312H22.6233V9.28906H26.4436V10.2148H22.6233V13.0625H26.7717V14H21.5686Z" fill="#F47320"/>
<g clip-path="url(#clip0_242_15201)">
<path d="M35.6649 4.85851C35.4854 4.72047 35.2186 4.84681 35.2289 5.05973C35.2673 5.80844 34.3388 7.22632 33.4155 8.05926C31.6611 9.63858 32.033 11.5806 32.033 11.5806C32.292 13.581 34.2773 15.0106 36.4703 14.7743C38.6633 14.538 40.2305 12.727 39.9714 10.7266C39.9458 8.14817 37.073 5.93011 35.6649 4.85851ZM37.9118 11.976C37.8938 12.9306 37.032 13.6933 35.9855 13.6769C34.939 13.6606 34.1029 12.8744 34.1208 11.9198C34.1208 11.9198 34.0823 10.9839 35.016 10.3428C35.5084 10.0059 36.0419 9.39057 36.0753 9.03727C36.0856 8.93666 36.2189 8.8922 36.2933 8.96707C36.8807 9.55201 38.0785 10.7616 37.9118 11.976Z" fill="#F47320"/>
</g>
<defs>
<clipPath id="clip0_242_15201">
<rect width="8" height="10" fill="white" transform="translate(32 4.7998)"/>
</clipPath>
</defs>
</svg>
