<svg width="48" height="19" viewBox="0 0 48 19" fill="none" xmlns="http://www.w3.org/2000/svg">
<rect width="48" height="19" rx="4" fill="#F4F1E8"/>
<path d="M12.7266 8.16406C12.3633 7.07422 11.5312 6.38281 10.3242 6.38281C8.82422 6.38281 7.62891 7.56641 7.62891 9.75781C7.62891 11.9492 8.82422 13.1328 10.3945 13.1328C11.8301 13.1328 12.8086 12.1719 12.832 10.6719H10.6172V9.74609H13.8633V10.6602C13.8633 12.7695 12.4102 14.1172 10.3945 14.1172C8.13281 14.1172 6.60938 12.4414 6.60938 9.75781C6.60938 7.07422 8.14453 5.39844 10.3242 5.39844C12.1172 5.39844 13.5 6.52344 13.8164 8.16406H12.7266ZM15.3253 14V5.51562H20.4698V6.45312H16.38V9.28906H20.2003V10.2148H16.38V13.0625H20.5284V14H15.3253ZM28.7522 5.51562V14H27.7444L23.1506 7.39062H23.0686V14H22.0139V5.51562H23.0334L27.6272 12.1367H27.7092V5.51562H28.7522Z" fill="#AA8B30"/>
<g clip-path="url(#clip0_242_15177)">
<path d="M37.6649 4.85851C37.4854 4.72047 37.2186 4.84681 37.2289 5.05973C37.2673 5.80844 36.3388 7.22632 35.4155 8.05926C33.6611 9.63858 34.033 11.5806 34.033 11.5806C34.292 13.581 36.2773 15.0106 38.4703 14.7743C40.6633 14.538 42.2305 12.727 41.9714 10.7266C41.9458 8.14817 39.073 5.93011 37.6649 4.85851ZM39.9118 11.976C39.8938 12.9306 39.032 13.6933 37.9855 13.6769C36.939 13.6606 36.1029 12.8744 36.1208 11.9198C36.1208 11.9198 36.0823 10.9839 37.016 10.3428C37.5084 10.0059 38.0419 9.39057 38.0753 9.03727C38.0856 8.93666 38.2189 8.8922 38.2933 8.96707C38.8807 9.55201 40.0785 10.7616 39.9118 11.976Z" fill="#AA8B30"/>
</g>
<defs>
<clipPath id="clip0_242_15177">
<rect width="8" height="10" fill="white" transform="translate(34 4.7998)"/>
</clipPath>
</defs>
</svg>
