<svg width="32" height="32" viewBox="0 0 32 32" fill="none" xmlns="http://www.w3.org/2000/svg">
<path d="M14.861 6.91139C15.5895 5.6962 17.4105 5.6962 18.139 6.91139L26.7436 21.2658C27.4721 22.481 26.5615 24 25.1046 24H7.89535C6.43848 24 5.52794 22.481 6.25637 21.2658L14.861 6.91139Z" fill="#EE9209"/>
<path d="M16.5 12C17.0481 12 17.4884 12.4518 17.4744 12.9997L17.3678 17.1541C17.3558 17.6248 16.9708 18 16.5 18C16.0292 18 15.6442 17.6248 15.6322 17.1541L15.5256 12.9997C15.5116 12.4518 15.9519 12 16.5 12Z" fill="#FDFDFD"/>
<circle cx="16.5" cy="20" r="1" fill="#FDFDFD"/>
</svg>
