<svg width="47" height="19" viewBox="0 0 47 19" fill="none" xmlns="http://www.w3.org/2000/svg">
<rect width="47" height="19" rx="4" fill="#E4E3F3"/>
<path d="M9.57422 14H6.9375V5.51562H9.67969C12.1523 5.51562 13.6172 7.10938 13.6172 9.74609C13.6172 12.3945 12.1523 14 9.57422 14ZM7.99219 13.0625H9.50391C11.5898 13.0625 12.5859 11.8086 12.5859 9.74609C12.5859 7.69531 11.5898 6.45312 9.60938 6.45312H7.99219V13.0625ZM15.0441 14V5.51562H17.9269C19.9191 5.51562 20.8214 6.61719 20.8214 8.12891C20.8214 9.24805 20.3175 10.1328 19.2394 10.5078L21.1495 14H19.9191L18.1495 10.6953C18.0792 10.707 18.0089 10.707 17.9386 10.707H16.0988V14H15.0441ZM16.0988 9.74609H17.8917C19.2394 9.74609 19.7784 9.13672 19.7784 8.12891C19.7784 7.10938 19.2394 6.45312 17.88 6.45312H16.0988V9.74609ZM22.7639 5.51562L24.9202 9.01953H24.9905L27.1584 5.51562H28.4006L25.7405 9.75781L28.4006 14H27.1584L24.9905 10.5664H24.9202L22.7522 14H21.51L24.2405 9.75781L21.51 5.51562H22.7639Z" fill="#1004A4"/>
<g clip-path="url(#clip0_242_15183)">
<path d="M36.6649 4.85851C36.4854 4.72047 36.2186 4.84681 36.2289 5.05973C36.2673 5.80844 35.3388 7.22632 34.4155 8.05926C32.6611 9.63858 33.033 11.5806 33.033 11.5806C33.292 13.581 35.2773 15.0106 37.4703 14.7743C39.6633 14.538 41.2305 12.727 40.9714 10.7266C40.9458 8.14817 38.073 5.93011 36.6649 4.85851ZM38.9118 11.976C38.8938 12.9306 38.032 13.6933 36.9855 13.6769C35.939 13.6606 35.1029 12.8744 35.1208 11.9198C35.1208 11.9198 35.0823 10.9839 36.016 10.3428C36.5084 10.0059 37.0419 9.39057 37.0753 9.03727C37.0856 8.93666 37.2189 8.8922 37.2933 8.96707C37.8807 9.55201 39.0785 10.7616 38.9118 11.976Z" fill="#1004A4"/>
</g>
<defs>
<clipPath id="clip0_242_15183">
<rect width="8" height="10" fill="white" transform="translate(33 4.7998)"/>
</clipPath>
</defs>
</svg>
