<svg width="328" height="50" viewBox="0 0 328 50" fill="none" xmlns="http://www.w3.org/2000/svg">
<path fill-rule="evenodd" clip-rule="evenodd" d="M5.99999 0C2.68629 0 0 2.68629 0 6V44C0 47.3137 2.68629 50 6 50H322C325.314 50 328 47.3137 328 44V6C328 2.68629 325.314 0 322 0H5.99999Z" fill="#FEE500"/>
<path d="M93.6605 30.2L92.7305 29.05C95.0705 27.98 96.9305 26.39 97.9805 24.3L93.2305 24.81L92.9605 23.49L98.4705 23.07C98.6905 22.38 98.8305 21.63 98.8605 20.83H93.5505V19.56H100.43C100.41 24.76 97.8205 28.1 93.6505 30.2H93.6605ZM104.19 23.96H106.55V25.2H104.19V32.81H102.7V18H104.19V23.97V23.96Z" fill="#191919"/>
<path d="M108.151 30.2L107.221 29.05C109.561 27.98 111.421 26.39 112.471 24.3L107.721 24.81L107.451 23.49L112.961 23.07C113.181 22.38 113.321 21.63 113.351 20.83H108.041V19.56H114.921C114.901 24.76 112.311 28.1 108.141 30.2H108.151ZM118.681 23.96H121.041V25.2H118.681V32.81H117.191V18H118.681V23.97V23.96Z" fill="#191919"/>
<path d="M129.15 27.1502V29.6602H135.1V30.9002H121.73V29.6602H127.65V27.1302C124.77 26.8902 122.9 25.3302 122.9 23.0302C122.9 20.5602 125.1 18.9102 128.41 18.9102C131.72 18.9102 133.94 20.5502 133.94 23.0302C133.94 25.3302 132.06 26.9302 129.16 27.1502H129.15ZM128.4 20.1702C126.01 20.1702 124.43 21.3602 124.43 23.0302C124.43 24.7002 126.01 25.8902 128.4 25.8902C130.79 25.8902 132.38 24.7202 132.38 23.0302C132.38 21.3402 130.8 20.1702 128.4 20.1702Z" fill="#191919"/>
<path d="M136.221 30.9302V29.7102H142.121V27.3702H137.831V22.6102H146.441V20.4402H137.801V19.2202H147.941V23.8302H139.331V26.1502H148.351V27.3702H143.641V29.7102H149.611V30.9302H136.241H136.221Z" fill="#191919"/>
<path d="M155.34 29.19V19.44H156.7V23.15H157.97V19.42H159.33V29.18H155.35L155.34 29.19ZM157.97 24.34H156.7V27.98H157.97V24.34ZM160.24 29.2V19.42H161.58V23.13H162.87V19.4H164.23V29.2H160.25H160.24ZM162.87 24.34H161.58V28H162.87V24.34ZM166.85 23.71H168.87V24.95H166.85V32.81H165.38V18H166.85V23.71Z" fill="#191919"/>
<path d="M169.49 30.8602V29.6202H182.86V30.8602H169.49ZM171.15 27.2802V22.5202H179.71V20.4202H171.15V19.2202H181.2V23.7602H172.66V26.0602H181.59V27.2802H171.15Z" fill="#191919"/>
<path d="M184.741 29.76L183.721 28.66C186.771 26.88 188.451 24.03 188.701 21.02H184.361V19.78H190.191C190.141 24.17 188.381 27.34 184.731 29.76H184.741ZM192.131 32.08V25.22H189.961V24H192.131V18.34H193.551V32.09H192.131V32.08ZM195.041 32.81V18H196.481V32.81H195.041Z" fill="#191919"/>
<path d="M210.861 29.25C209.541 28.34 207.831 26.57 207.281 24.84C206.751 26.65 205.301 28.53 203.621 29.64L202.691 28.54C204.911 27.13 206.491 24.56 206.491 21.83V19.3H208.051V21.76C208.051 24.54 209.711 26.95 211.761 28.13L210.861 29.25ZM213.521 32.81V18H215.011V32.81H213.521Z" fill="#191919"/>
<path d="M217.37 19.02H225.45V20.26H222.21V20.67C222.21 22.77 223.99 24.42 225.67 24.92L224.84 26.12C223.52 25.59 222.08 24.32 221.47 22.97C220.98 24.39 219.39 25.9 217.86 26.53L216.98 25.36C218.9 24.67 220.69 22.77 220.69 20.7V20.26H217.37V19.02ZM228.69 27.51V32.83H227.2V28.75H219.1V27.51H228.69ZM228.69 23.17V26.73H227.18V18H228.69V21.92H230.89V23.17H228.69Z" fill="#191919"/>
<path d="M231.66 22.7298V21.5298H240.44V22.7298H231.66ZM236.12 29.7998C234.02 29.7998 232.61 28.4798 232.61 26.6998C232.61 24.9198 234.02 23.5598 236.12 23.5598C238.22 23.5598 239.61 24.9198 239.61 26.6998C239.61 28.4798 238.22 29.7998 236.12 29.7998ZM233.87 20.1898V18.9698H238.29V20.1898H233.87ZM236.12 24.8198C234.97 24.8198 234.12 25.5998 234.12 26.6998C234.12 27.7998 234.95 28.5498 236.12 28.5498C237.29 28.5498 238.14 27.7898 238.14 26.6998C238.14 25.6098 237.28 24.8198 236.12 24.8198ZM243.19 25.4298V32.8198H241.68V18.0098H243.19V24.1798H245.55V25.4298H243.19Z" fill="#191919"/>
<path d="M247.17 29.95L246.25 28.81C249.74 27.13 252.15 24.03 252.42 20.84H246.91V19.57H254.05C253.97 24.28 251.22 27.74 247.17 29.94V29.95ZM256.88 32.81V18H258.39V32.81H256.88Z" fill="#191919"/>
<path d="M35.4903 15.3799C29.8703 15.3799 25.3203 18.9099 25.3203 23.2699C25.3203 25.9799 27.0803 28.3699 29.7603 29.7899L28.6303 33.9299C28.5303 34.2999 28.9503 34.5899 29.2703 34.3799L34.2203 31.0999C34.6403 31.1399 35.0603 31.1599 35.4903 31.1599C41.1103 31.1599 45.6603 27.6299 45.6603 23.2699C45.6603 18.9099 41.1103 15.3799 35.4903 15.3799Z" fill="black"/>
</svg>
