<svg width="104" height="34" viewBox="0 0 104 34" fill="none" xmlns="http://www.w3.org/2000/svg">
<path d="M1.26855 24.7728V9.80702C1.26855 9.57678 1.45794 9.39062 1.69218 9.39062H6.21254C6.44678 9.39062 6.63616 9.57678 6.63616 9.80702V24.8463C6.63616 25.9975 7.5831 26.9283 8.7543 26.9283H11.4207C11.6549 26.9283 11.8443 26.7421 11.8443 26.5119V11.649C11.8443 11.4187 12.0337 11.2326 12.2679 11.2326H16.4843C16.7185 11.2326 16.9079 11.4187 16.9079 11.649V26.5119C16.9079 26.7421 17.0973 26.9283 17.3315 26.9283H21.6724C21.9067 26.9283 22.0961 26.7421 22.0961 26.5119V9.80702C22.0961 9.57678 22.2855 9.39062 22.5197 9.39062H27.0401C27.2743 9.39062 27.4637 9.57678 27.4637 9.80702V31.7144H8.33067C4.42832 31.7144 1.26855 28.6037 1.26855 24.7728Z" fill="#0E0E0E"/>
<path d="M52.9708 31.3031V3.16444C52.9708 2.9342 53.1602 2.74805 53.3944 2.74805H57.9148C58.149 2.74805 58.3384 2.9342 58.3384 3.16444V12.8102C58.3384 13.0404 58.5278 13.2266 58.762 13.2266H64.0549C67.9572 13.2266 71.117 16.3373 71.117 20.1681V31.3031C71.117 31.5333 70.9276 31.7195 70.6934 31.7195H53.3894C53.1552 31.7195 52.9658 31.5333 52.9658 31.3031H52.9708ZM58.762 26.9971H65.3258C65.56 26.9971 65.7494 26.8109 65.7494 26.5807V20.2514C65.7494 19.1002 64.8025 18.1694 63.6313 18.1694H58.762C58.5278 18.1694 58.3384 18.3556 58.3384 18.5858V26.5807C58.3384 26.8109 58.5278 26.9971 58.762 26.9971Z" fill="#0E0E0E"/>
<path d="M79.4957 2.5376H74.9754C74.7414 2.5376 74.5518 2.72402 74.5518 2.95399V31.3033C74.5518 31.5333 74.7414 31.7197 74.9754 31.7197H79.4957C79.7297 31.7197 79.9194 31.5333 79.9194 31.3033V2.95399C79.9194 2.72402 79.7297 2.5376 79.4957 2.5376Z" fill="#0E0E0E"/>
<path d="M31.3917 31.3034V25.1162C31.3917 21.2805 34.5564 18.1746 38.4538 18.1746H43.7467C43.9809 18.1746 44.1703 17.9885 44.1703 17.7582V16.4454C44.1703 15.2941 43.2234 14.3634 42.0522 14.3634H32.3984C32.1642 14.3634 31.9748 14.1772 31.9748 13.947V9.81239C31.9748 9.58215 32.1642 9.396 32.3984 9.396H42.4758C46.3781 9.396 49.5379 12.5067 49.5379 16.3376V31.3034C49.5379 31.5336 49.3485 31.7198 49.1143 31.7198H31.8103C31.5761 31.7198 31.3867 31.5336 31.3867 31.3034H31.3917ZM37.1829 26.9973H43.7467C43.9809 26.9973 44.1703 26.8112 44.1703 26.5809V23.0881C44.1703 22.8579 43.9809 22.6717 43.7467 22.6717H38.8774C37.7062 22.6717 36.7593 23.6025 36.7593 24.7537V26.5809C36.7593 26.8112 36.9487 26.9973 37.1829 26.9973Z" fill="#0E0E0E"/>
<path d="M83.3525 31.3031V11.556C83.3525 11.3258 83.5419 11.1396 83.7762 11.1396H94.4416C98.344 11.1396 101.504 14.2504 101.504 18.0812V23.999H89.1438C88.9095 23.999 88.7202 24.1851 88.7202 24.4154V26.5806C88.7202 26.8109 88.9095 26.997 89.1438 26.997H101.08C101.314 26.997 101.504 27.1832 101.504 27.4134V31.2982C101.504 31.5284 101.314 31.7146 101.08 31.7146H83.7762C83.5419 31.7146 83.3525 31.5284 83.3525 31.2982V31.3031ZM89.1438 19.5558H96.1311V17.8118C96.1311 16.6606 95.1842 15.7298 94.013 15.7298H89.1438C88.9095 15.7298 88.7202 15.916 88.7202 16.1462V19.1394C88.7202 19.3696 88.9095 19.5558 89.1438 19.5558Z" fill="#0E0E0E"/>
</svg>
