<svg width="33" height="19" viewBox="0 0 33 19" fill="none" xmlns="http://www.w3.org/2000/svg">
<rect width="33" height="19" rx="4" fill="#EE9209"/>
<path d="M15.4922 4.44922V15.043H14.2383V4.44922H15.4922ZM13.3477 4.63672V14.5273H12.1172V11.1875H10.7344C10.3418 12.2305 9.63867 12.8223 8.74219 12.8164C7.35938 12.8281 6.45703 11.3633 6.45703 9.03125C6.45703 6.69922 7.35938 5.25781 8.74219 5.25781C9.63867 5.25781 10.3359 5.84375 10.7344 6.875H12.1172V4.63672H13.3477ZM8.74219 6.48828C8.05078 6.47656 7.64062 7.37891 7.65234 9.03125C7.64062 10.6836 8.05078 11.5859 8.74219 11.5742C9.44531 11.5859 9.87891 10.6836 9.87891 9.03125C9.87891 7.37891 9.44531 6.47656 8.74219 6.48828ZM10.9922 7.92969C11.0449 8.26953 11.0742 8.63867 11.0742 9.03125C11.0742 9.41797 11.0449 9.78125 11.0039 10.1211H12.1172V7.92969H10.9922ZM25.4738 4.44922V10.7422H24.173V8.15234H22.3683V7.08594H24.173V4.44922H25.4738ZM21.8878 11.0117C24.1378 11.0117 25.5089 11.75 25.5089 13.0273C25.5089 14.3047 24.1378 15.043 21.8878 15.043C19.6495 15.043 18.2784 14.3047 18.2902 13.0273C18.2784 11.75 19.6495 11.0117 21.8878 11.0117ZM21.8878 12.0078C20.4113 12.0078 19.5792 12.3594 19.5792 13.0273C19.5792 13.6836 20.4113 14.0352 21.8878 14.0352C23.3644 14.0352 24.2081 13.6836 24.2081 13.0273C24.2081 12.3594 23.3644 12.0078 21.8878 12.0078ZM20.4933 6.26562C20.4933 7.55469 21.3488 8.85547 22.9894 9.40625L22.3331 10.4375C21.1554 10.0391 20.3175 9.23047 19.8605 8.23438C19.3917 9.36523 18.507 10.2676 17.2472 10.7188L16.5675 9.6875C18.2667 9.10156 19.1691 7.67188 19.1691 6.27734V6.19531H16.9659V5.14062H22.6847V6.19531H20.4933V6.26562Z" fill="#FDFDFD"/>
</svg>
