<svg width="33" height="19" viewBox="0 0 33 19" fill="none" xmlns="http://www.w3.org/2000/svg">
<rect width="33" height="19" rx="4" fill="#F01F1F"/>
<path d="M11.8125 8.23438V9.58203H16.0078V10.6367H6.35156V9.58203H10.5234V8.23438H11.8125ZM11.168 11.3164C13.4648 11.3164 14.8242 11.9727 14.8359 13.168C14.8242 14.3633 13.4648 15.0312 11.168 15.0312C8.85938 15.0312 7.47656 14.3633 7.47656 13.168C7.47656 11.9727 8.85938 11.3164 11.168 11.3164ZM11.168 12.3125C9.60938 12.3125 8.78906 12.6055 8.80078 13.168C8.78906 13.7539 9.60938 14.0469 11.168 14.0469C12.6914 14.0469 13.5234 13.7539 13.5352 13.168C13.5234 12.6055 12.6914 12.3125 11.168 12.3125ZM15.1406 4.91797V5.96094H12.0938C12.3047 6.82227 13.5762 7.5957 15.5508 7.78906L15.082 8.80859C13.1602 8.61523 11.7422 7.86523 11.168 6.79297C10.5938 7.86523 9.1875 8.61523 7.26562 8.80859L6.80859 7.78906C8.76562 7.5957 10.0371 6.82812 10.2539 5.96094H7.23047V4.91797H15.1406ZM26.2823 12.7344V13.8125H16.6027V12.7344H19.1691V10.9883H17.7511V7.53125H23.8448V6.23047H17.7277V5.17578H25.1339V8.57422H19.0519V9.93359H25.38V10.9883H23.8331V12.7344H26.2823ZM20.4347 12.7344H22.5558V10.9883H20.4347V12.7344Z" fill="#FDFDFD"/>
</svg>
