<svg width="32" height="32" viewBox="0 0 32 32" fill="none" xmlns="http://www.w3.org/2000/svg">
<path fill-rule="evenodd" clip-rule="evenodd" d="M15.7487 21.5277C15.3067 21.1456 14.8124 20.7383 14.2282 20.7383H6.66986C5.06269 20.7383 3.75983 19.4355 3.75983 17.8283V13.2737C3.75983 11.6666 5.06269 10.3637 6.66986 10.3637H14.2283C14.8125 10.3637 15.3067 9.95644 15.7487 9.57442L20.3568 5.59172C21.6137 4.50546 23.5654 5.3983 23.5654 7.0595V24.0426C23.5654 25.7038 21.6136 26.5966 20.3568 25.5104L15.7487 21.5277Z" fill="#8F4BFF"/>
<path d="M24.7208 13.8139C24.7208 13.4121 25.0465 13.0864 25.4483 13.0864C26.6536 13.0864 27.6308 14.0636 27.6308 15.2689V15.754C27.6308 16.9594 26.6536 17.9365 25.4483 17.9365C25.0465 17.9365 24.7208 17.6108 24.7208 17.209V13.8139Z" fill="#8F4BFF"/>
<path d="M8.23102 19.8765H12.111V25.6966C12.111 26.2323 11.6767 26.6666 11.141 26.6666H9.20103C8.66531 26.6666 8.23102 26.2323 8.23102 25.6966V19.8765Z" fill="#8F4BFF"/>
</svg>
