<svg width="43" height="19" viewBox="0 0 43 19" fill="none" xmlns="http://www.w3.org/2000/svg">
<rect width="43" height="19" rx="4" fill="#127CF4"/>
<path d="M10.3711 6.60547C10.3711 7.91797 11.2734 9.20703 12.9609 9.73438L12.293 10.7539C11.0918 10.3613 10.2188 9.57031 9.73828 8.5625C9.25781 9.6582 8.36133 10.5312 7.10156 10.9648L6.43359 9.93359C8.13281 9.37109 9.04688 8 9.05859 6.60547V6.30078H6.77344V5.25781H12.5977V6.30078H10.3711V6.60547ZM15.1758 4.46094V12.1484H13.8633V4.46094H15.1758ZM15.4688 13.7773V14.832H8.16797V11.4453H9.48047V13.7773H15.4688ZM25.6613 4.44922V11.1055H24.4191V8.22266H23.3878V10.7539H22.1691V4.66016H23.3878V7.16797H24.4191V4.44922H25.6613ZM21.8175 5.59766V6.61719H16.5441V5.59766H18.548V4.54297H19.837V5.59766H21.8175ZM19.1925 7.05078C20.5402 7.05078 21.4894 7.77734 21.5011 8.87891C21.4894 9.98047 20.5402 10.707 19.1925 10.707C17.8683 10.707 16.9073 9.98047 16.9191 8.87891C16.9073 7.77734 17.8683 7.05078 19.1925 7.05078ZM19.1925 7.98828C18.5363 7.98828 18.0792 8.32812 18.0792 8.87891C18.0792 9.42969 18.5245 9.76953 19.1925 9.76953C19.8605 9.76953 20.3175 9.42969 20.3175 8.87891C20.3175 8.32812 19.8605 7.98828 19.1925 7.98828ZM22.087 11.2344C24.3488 11.2344 25.7081 11.9258 25.7198 13.1445C25.7081 14.3398 24.3488 15.0312 22.087 15.0312C19.8253 15.0312 18.4542 14.3398 18.4542 13.1445C18.4542 11.9258 19.8253 11.2344 22.087 11.2344ZM22.087 12.2305C20.5753 12.2188 19.755 12.5234 19.755 13.1445C19.755 13.7305 20.5753 14.0352 22.087 14.0352C23.587 14.0352 24.4073 13.7305 24.4073 13.1445C24.4073 12.5234 23.587 12.2188 22.087 12.2305ZM36.51 9.3125V10.3672H32.3147V11.2461C34.2131 11.375 35.3264 12.0312 35.3381 13.1328C35.3264 14.3516 33.9553 15.0312 31.6702 15.0312C29.3616 15.0312 27.9788 14.3516 27.9788 13.1328C27.9788 12.0312 29.1038 11.3691 31.0256 11.2461V10.3672H26.8538V9.3125H36.51ZM31.6702 12.2305C30.1233 12.2422 29.2913 12.5469 29.303 13.1328C29.2913 13.7188 30.1233 14.0352 31.6702 14.0352C33.1819 14.0352 34.0256 13.7188 34.0373 13.1328C34.0256 12.5469 33.1819 12.2422 31.6702 12.2305ZM35.6428 4.91797V5.96094H32.5959C32.801 6.83398 34.0666 7.61914 36.053 7.80078L35.5959 8.83203C33.6741 8.63867 32.2444 7.87109 31.6702 6.79297C31.0959 7.86523 29.6897 8.63867 27.7678 8.83203L27.3225 7.80078C29.2678 7.61914 30.5334 6.82227 30.7561 5.96094H27.7327V4.91797H35.6428Z" fill="#FDFDFD"/>
</svg>
