<svg width="48" height="48" viewBox="0 0 48 48" fill="none" xmlns="http://www.w3.org/2000/svg">
<circle cx="24" cy="24" r="16" fill="#2D2D2D"/>
<g clip-path="url(#clip0_290_72622)">
<path d="M26.4853 22.4574L25.5427 21.5147L19.3333 27.7241V28.6667H20.276L26.4853 22.4574ZM27.428 21.5147L28.3707 20.5721L27.428 19.6294L26.4853 20.5721L27.428 21.5147ZM20.828 30.0001H18V27.1714L26.9567 18.2147C27.0817 18.0897 27.2512 18.0195 27.428 18.0195C27.6048 18.0195 27.7743 18.0897 27.8993 18.2147L29.7853 20.1007C29.9103 20.2257 29.9805 20.3953 29.9805 20.5721C29.9805 20.7488 29.9103 20.9184 29.7853 21.0434L20.8287 30.0001H20.828Z" fill="#F7F7F7"/>
</g>
<defs>
<clipPath id="clip0_290_72622">
<rect width="16" height="16" fill="white" transform="translate(16 16)"/>
</clipPath>
</defs>
</svg>
