<svg width="120" height="120" viewBox="0 0 120 120" fill="none" xmlns="http://www.w3.org/2000/svg">
<g clip-path="url(#clip0_290_63762)">
<path d="M104.229 57.6886C103.09 35.1984 84.802 16.9102 62.3005 15.7714C36.0297 14.4391 14.4391 36.0297 15.7714 62.3005C16.9102 84.802 35.1984 103.079 57.6886 104.218C83.9707 105.55 105.55 83.9594 104.218 57.6886H104.229ZM43.4657 98.0001C29.3794 91.6914 19.5634 77.5368 19.5634 61.1048C19.5634 58.3946 19.8595 55.7527 20.3719 53.1905C20.463 53.0539 20.6452 52.9742 20.8161 52.9969C21.0552 53.0311 21.2032 53.2475 21.1691 53.4866C21.1349 54.3179 21.1007 55.1492 21.1007 56.0032C21.1007 72.8111 30.7345 90.063 43.6592 97.6129C43.9098 97.7609 43.7048 98.1253 43.4429 98.0114L43.4657 98.0001ZM63.5986 80.5887C61.7197 83.1736 60.4443 92.6935 60.1027 97.7837C60.1027 97.7837 60.0571 97.8748 60.0116 97.8748C59.966 97.8748 59.9205 97.8292 59.9205 97.7837C59.5789 92.6935 58.3035 83.185 56.4246 80.5887C56.2879 80.4065 56.2879 80.1787 56.4246 79.9965C58.3035 77.4002 59.5789 67.8575 59.9205 62.7787C59.9205 62.7218 59.966 62.6876 60.0116 62.6876C60.0571 62.6876 60.1027 62.7332 60.1027 62.7787C60.4443 67.8575 61.7197 77.4002 63.5986 79.9965C63.7353 80.1787 63.7353 80.4065 63.5986 80.5887ZM60.0002 47.3829C49.5579 47.3829 39.9811 55.7527 41.0857 73.9954C41.2565 76.8422 41.302 76.8194 41.6551 79.3019C41.6778 79.4044 41.6209 79.5069 41.5184 79.5297C41.4387 79.5524 41.359 79.5069 41.3248 79.4385C41.2109 79.0058 41.0857 78.5845 40.9718 78.1404C39.7647 73.0844 39.0929 67.459 39.0929 61.5261C39.0929 39.3776 47.0982 24.8928 59.9888 24.8928C72.8794 24.8928 80.8848 39.3776 80.8848 61.5261C80.8848 67.4248 80.2129 73.0274 79.0286 78.0834C78.9147 78.5503 78.7781 78.9944 78.6642 79.4499C78.6187 79.5069 78.5503 79.5524 78.482 79.5297C78.3795 79.5069 78.3226 79.4044 78.3454 79.3019C78.6984 76.7967 78.7439 76.8081 78.9147 73.9954C79.9851 55.7527 70.4425 47.3829 60.0002 47.3829ZM76.5461 98.0001C76.2842 98.1139 76.0906 97.7495 76.3298 97.6015C89.2545 90.0516 98.8769 72.7997 98.8769 55.9918C98.8769 55.1378 98.8313 54.3065 98.7972 53.4752C98.7972 53.2361 98.9452 53.0197 99.1844 52.9855C99.4121 52.9514 99.6171 53.0994 99.6626 53.3272C100.152 55.8438 100.414 58.4401 100.414 61.0934C100.414 77.5255 90.6096 91.6686 76.5348 97.9887L76.5461 98.0001Z" fill="url(#paint0_linear_290_63762)"/>
</g>
<defs>
<linearGradient id="paint0_linear_290_63762" x1="59.9945" y1="15.7129" x2="59.9945" y2="104.276" gradientUnits="userSpaceOnUse">
<stop stop-color="#02E9CF"/>
<stop offset="0.485" stop-color="#5BA4FD"/>
<stop offset="1" stop-color="#B846FF"/>
</linearGradient>
<clipPath id="clip0_290_63762">
<rect width="88.5714" height="88.5714" fill="white" transform="translate(15.7139 15.7144)"/>
</clipPath>
</defs>
</svg>
