<svg width="360" height="290" viewBox="0 0 360 290" fill="none" xmlns="http://www.w3.org/2000/svg">
<path d="M276.051 125.172C273.578 76.3365 233.867 36.6252 185.007 34.1525C127.962 31.2595 81.0798 78.1416 83.9728 135.186C86.4455 184.047 126.157 223.733 174.992 226.206C232.062 229.099 278.919 182.217 276.026 125.172H276.051ZM144.108 216.142C113.521 202.419 92.2068 171.708 92.2068 136.027C92.2068 130.142 92.8497 124.405 93.9625 118.842C94.1603 118.545 94.5064 118.372 94.8773 118.422C95.3966 118.496 95.7428 118.966 95.6686 119.485H95.7181C95.6439 121.29 95.5697 123.095 95.5697 124.949C95.5697 161.446 116.489 198.907 144.554 215.301C145.098 215.623 144.652 216.414 144.084 216.167L144.108 216.142ZM187.826 174.898C183.746 180.511 180.976 201.182 180.234 212.235C180.234 212.235 180.136 212.433 180.037 212.433C179.938 212.433 179.839 212.334 179.839 212.235C179.097 201.182 176.328 180.535 172.248 174.898C171.951 174.502 171.951 174.008 172.248 173.612C176.328 167.974 179.097 147.253 179.839 136.225C179.839 136.101 179.938 136.027 180.037 136.027C180.136 136.027 180.234 136.126 180.234 136.225C180.976 147.253 183.746 167.974 187.826 173.612C188.122 174.008 188.122 174.502 187.826 174.898ZM180.012 102.794C157.337 102.794 136.542 120.968 138.941 160.581C139.311 166.763 139.41 166.713 140.177 172.104C140.226 172.326 140.103 172.549 139.88 172.598C139.707 172.648 139.534 172.549 139.46 172.4C139.213 171.461 138.941 170.546 138.693 169.581C136.072 158.603 134.613 146.388 134.613 133.505C134.613 85.4113 151.996 53.9587 179.987 53.9587C207.978 53.9587 225.361 85.4113 225.361 133.505C225.361 146.313 223.902 158.479 221.33 169.458C221.083 170.472 220.786 171.436 220.539 172.425C220.44 172.549 220.292 172.648 220.144 172.598C219.921 172.549 219.797 172.326 219.847 172.104C220.613 166.664 220.712 166.688 221.083 160.581C223.408 120.968 202.686 102.794 180.012 102.794ZM215.94 216.117C215.371 216.365 214.951 215.573 215.47 215.252C243.535 198.858 264.429 161.397 264.429 124.9C264.429 123.046 264.33 121.24 264.256 119.435H264.306C264.232 118.916 264.578 118.446 265.097 118.372C265.592 118.298 266.037 118.619 266.135 119.114C267.199 124.579 267.767 130.216 267.767 135.978C267.767 171.659 246.478 202.369 215.915 216.093L215.94 216.117Z" fill="url(#paint0_linear_616_34239)"/>
<circle opacity="0.7" cx="180.154" cy="130.179" r="96.1538" fill="url(#paint1_linear_616_34239)"/>
<g opacity="0.15">
<rect x="256" width="55.2" height="29.6" rx="14.8" fill="#B9ADCC" fill-opacity="0.5"/>
<circle cx="273.2" cy="14.7998" r="2" fill="#252CC4" fill-opacity="0.8"/>
<circle cx="283.6" cy="14.7998" r="2" fill="#252CC4" fill-opacity="0.8"/>
<circle cx="294" cy="14.7998" r="2" fill="#252CC4" fill-opacity="0.8"/>
</g>
<g opacity="0.15">
<rect width="54.648" height="29.304" rx="14.652" transform="matrix(-1 0 0 1 69.6484 130)" fill="#B9ADCC" fill-opacity="0.5"/>
<circle cx="1.98" cy="1.98" r="1.98" transform="matrix(-1 0 0 1 54.6006 142.673)" fill="#252CC4" fill-opacity="0.8"/>
<circle cx="1.98" cy="1.98" r="1.98" transform="matrix(-1 0 0 1 44.3047 142.673)" fill="#252CC4" fill-opacity="0.8"/>
<circle cx="1.98" cy="1.98" r="1.98" transform="matrix(-1 0 0 1 34.0088 142.673)" fill="#252CC4" fill-opacity="0.8"/>
</g>
<g opacity="0.3">
<rect width="91.08" height="48.84" rx="24.42" transform="matrix(-1 0 0 1 75.0801 179.779)" fill="#B9ADCC" fill-opacity="0.5"/>
<circle cx="3.3" cy="3.3" r="3.3" transform="matrix(-1 0 0 1 50 200.9)" fill="#252CC4" fill-opacity="0.8"/>
<circle cx="3.3" cy="3.3" r="3.3" transform="matrix(-1 0 0 1 32.8398 200.9)" fill="#252CC4" fill-opacity="0.8"/>
<circle cx="3.3" cy="3.3" r="3.3" transform="matrix(-1 0 0 1 15.6797 200.9)" fill="#252CC4" fill-opacity="0.8"/>
</g>
<g filter="url(#filter0_f_616_34239)">
<ellipse cx="180" cy="273.932" rx="80" ry="7" fill="#DEDEDE"/>
</g>
<g opacity="0.3">
<rect x="294" y="49.2207" width="74.52" height="39.96" rx="19.98" fill="#B9ADCC" fill-opacity="0.5"/>
<circle cx="317.22" cy="69.2" r="2.7" fill="#252CC4" fill-opacity="0.8"/>
<circle cx="331.26" cy="69.2" r="2.7" fill="#252CC4" fill-opacity="0.8"/>
<circle cx="345.3" cy="69.2" r="2.7" fill="#252CC4" fill-opacity="0.8"/>
</g>
<defs>
<filter id="filter0_f_616_34239" x="91.453" y="258.385" width="177.094" height="31.094" filterUnits="userSpaceOnUse" color-interpolation-filters="sRGB">
<feFlood flood-opacity="0" result="BackgroundImageFix"/>
<feBlend mode="normal" in="SourceGraphic" in2="BackgroundImageFix" result="shape"/>
<feGaussianBlur stdDeviation="4.2735" result="effect1_foregroundBlur_616_34239"/>
</filter>
<linearGradient id="paint0_linear_616_34239" x1="180" y1="34.0254" x2="180" y2="226.333" gradientUnits="userSpaceOnUse">
<stop stop-color="#02E9CF"/>
<stop offset="0.485" stop-color="#5BA4FD"/>
<stop offset="1" stop-color="#B846FF"/>
</linearGradient>
<linearGradient id="paint1_linear_616_34239" x1="110.175" y1="55.9271" x2="187.098" y2="175.585" gradientUnits="userSpaceOnUse">
<stop stop-color="white"/>
<stop offset="0.55" stop-color="white" stop-opacity="0.3"/>
<stop offset="1" stop-color="white" stop-opacity="0"/>
</linearGradient>
</defs>
</svg>
